<mxfile host="app.diagrams.net" agent="Mozilla/5.0 (Windows NT 10.0; Win64; x64) AppleWebKit/537.36 (KHTML, like Gecko) Chrome/133.0.0.0 Safari/537.36" version="26.0.16">
  <diagram name="Page-1" id="h-OP_mp51HaWnJW7iSs2">
    <mxGraphModel dx="2415" dy="824" grid="1" gridSize="10" guides="1" tooltips="1" connect="1" arrows="1" fold="1" page="1" pageScale="1" pageWidth="827" pageHeight="1169" math="0" shadow="0">
      <root>
        <mxCell id="0" />
        <mxCell id="1" parent="0" />
        <mxCell id="n-iRo7DqzHIQicK5_bs8-1" value="Root" style="rounded=0;whiteSpace=wrap;html=1;" vertex="1" parent="1">
          <mxGeometry x="360" y="40" width="120" height="60" as="geometry" />
        </mxCell>
        <mxCell id="n-iRo7DqzHIQicK5_bs8-5" style="edgeStyle=orthogonalEdgeStyle;rounded=0;orthogonalLoop=1;jettySize=auto;html=1;entryX=0;entryY=0.5;entryDx=0;entryDy=0;" edge="1" parent="1" source="n-iRo7DqzHIQicK5_bs8-2" target="n-iRo7DqzHIQicK5_bs8-1">
          <mxGeometry relative="1" as="geometry" />
        </mxCell>
        <mxCell id="n-iRo7DqzHIQicK5_bs8-20" style="edgeStyle=orthogonalEdgeStyle;rounded=0;orthogonalLoop=1;jettySize=auto;html=1;entryX=1;entryY=0.5;entryDx=0;entryDy=0;" edge="1" parent="1" source="n-iRo7DqzHIQicK5_bs8-2" target="n-iRo7DqzHIQicK5_bs8-7">
          <mxGeometry relative="1" as="geometry" />
        </mxCell>
        <mxCell id="n-iRo7DqzHIQicK5_bs8-21" style="edgeStyle=orthogonalEdgeStyle;rounded=0;orthogonalLoop=1;jettySize=auto;html=1;entryX=1;entryY=0.5;entryDx=0;entryDy=0;" edge="1" parent="1" source="n-iRo7DqzHIQicK5_bs8-2" target="n-iRo7DqzHIQicK5_bs8-9">
          <mxGeometry relative="1" as="geometry" />
        </mxCell>
        <mxCell id="n-iRo7DqzHIQicK5_bs8-22" style="edgeStyle=orthogonalEdgeStyle;rounded=0;orthogonalLoop=1;jettySize=auto;html=1;entryX=1;entryY=0.5;entryDx=0;entryDy=0;" edge="1" parent="1" source="n-iRo7DqzHIQicK5_bs8-2" target="n-iRo7DqzHIQicK5_bs8-8">
          <mxGeometry relative="1" as="geometry" />
        </mxCell>
        <mxCell id="n-iRo7DqzHIQicK5_bs8-23" style="edgeStyle=orthogonalEdgeStyle;rounded=0;orthogonalLoop=1;jettySize=auto;html=1;entryX=1;entryY=0.5;entryDx=0;entryDy=0;" edge="1" parent="1" source="n-iRo7DqzHIQicK5_bs8-2" target="n-iRo7DqzHIQicK5_bs8-10">
          <mxGeometry relative="1" as="geometry" />
        </mxCell>
        <mxCell id="n-iRo7DqzHIQicK5_bs8-26" style="edgeStyle=orthogonalEdgeStyle;rounded=0;orthogonalLoop=1;jettySize=auto;html=1;entryX=1;entryY=0.5;entryDx=0;entryDy=0;" edge="1" parent="1" source="n-iRo7DqzHIQicK5_bs8-2" target="n-iRo7DqzHIQicK5_bs8-25">
          <mxGeometry relative="1" as="geometry" />
        </mxCell>
        <mxCell id="n-iRo7DqzHIQicK5_bs8-2" value="Back-end" style="rounded=0;whiteSpace=wrap;html=1;" vertex="1" parent="1">
          <mxGeometry x="200" y="160" width="120" height="60" as="geometry" />
        </mxCell>
        <mxCell id="n-iRo7DqzHIQicK5_bs8-6" style="edgeStyle=orthogonalEdgeStyle;rounded=0;orthogonalLoop=1;jettySize=auto;html=1;entryX=1;entryY=0.5;entryDx=0;entryDy=0;" edge="1" parent="1" source="n-iRo7DqzHIQicK5_bs8-3" target="n-iRo7DqzHIQicK5_bs8-1">
          <mxGeometry relative="1" as="geometry" />
        </mxCell>
        <mxCell id="n-iRo7DqzHIQicK5_bs8-48" style="edgeStyle=orthogonalEdgeStyle;rounded=0;orthogonalLoop=1;jettySize=auto;html=1;entryX=0;entryY=0.5;entryDx=0;entryDy=0;" edge="1" parent="1" source="n-iRo7DqzHIQicK5_bs8-3" target="n-iRo7DqzHIQicK5_bs8-30">
          <mxGeometry relative="1" as="geometry" />
        </mxCell>
        <mxCell id="n-iRo7DqzHIQicK5_bs8-49" style="edgeStyle=orthogonalEdgeStyle;rounded=0;orthogonalLoop=1;jettySize=auto;html=1;entryX=0;entryY=0.5;entryDx=0;entryDy=0;" edge="1" parent="1" source="n-iRo7DqzHIQicK5_bs8-3" target="n-iRo7DqzHIQicK5_bs8-31">
          <mxGeometry relative="1" as="geometry" />
        </mxCell>
        <mxCell id="n-iRo7DqzHIQicK5_bs8-3" value="Front-End" style="rounded=0;whiteSpace=wrap;html=1;" vertex="1" parent="1">
          <mxGeometry x="560" y="160" width="120" height="60" as="geometry" />
        </mxCell>
        <mxCell id="n-iRo7DqzHIQicK5_bs8-7" value="Models" style="rounded=0;whiteSpace=wrap;html=1;" vertex="1" parent="1">
          <mxGeometry x="40" y="260" width="120" height="60" as="geometry" />
        </mxCell>
        <mxCell id="n-iRo7DqzHIQicK5_bs8-8" value="Routes" style="rounded=0;whiteSpace=wrap;html=1;" vertex="1" parent="1">
          <mxGeometry x="40" y="460" width="120" height="60" as="geometry" />
        </mxCell>
        <mxCell id="n-iRo7DqzHIQicK5_bs8-9" value="Controllers" style="rounded=0;whiteSpace=wrap;html=1;" vertex="1" parent="1">
          <mxGeometry x="40" y="360" width="120" height="60" as="geometry" />
        </mxCell>
        <mxCell id="n-iRo7DqzHIQicK5_bs8-28" style="edgeStyle=orthogonalEdgeStyle;rounded=0;orthogonalLoop=1;jettySize=auto;html=1;entryX=1;entryY=0.5;entryDx=0;entryDy=0;" edge="1" parent="1" source="n-iRo7DqzHIQicK5_bs8-10" target="n-iRo7DqzHIQicK5_bs8-11">
          <mxGeometry relative="1" as="geometry" />
        </mxCell>
        <mxCell id="n-iRo7DqzHIQicK5_bs8-10" value="Artifacts" style="rounded=0;whiteSpace=wrap;html=1;" vertex="1" parent="1">
          <mxGeometry x="40" y="640" width="120" height="60" as="geometry" />
        </mxCell>
        <mxCell id="n-iRo7DqzHIQicK5_bs8-14" style="edgeStyle=orthogonalEdgeStyle;rounded=0;orthogonalLoop=1;jettySize=auto;html=1;" edge="1" parent="1" source="n-iRo7DqzHIQicK5_bs8-11" target="n-iRo7DqzHIQicK5_bs8-13">
          <mxGeometry relative="1" as="geometry" />
        </mxCell>
        <mxCell id="n-iRo7DqzHIQicK5_bs8-11" value="ProjectID" style="rounded=0;whiteSpace=wrap;html=1;" vertex="1" parent="1">
          <mxGeometry x="-170" y="740" width="120" height="60" as="geometry" />
        </mxCell>
        <mxCell id="n-iRo7DqzHIQicK5_bs8-13" value="ArtifactID" style="ellipse;whiteSpace=wrap;html=1;" vertex="1" parent="1">
          <mxGeometry x="-370" y="740" width="100" height="60" as="geometry" />
        </mxCell>
        <mxCell id="n-iRo7DqzHIQicK5_bs8-25" value="Views" style="rounded=0;whiteSpace=wrap;html=1;" vertex="1" parent="1">
          <mxGeometry x="40" y="550" width="120" height="60" as="geometry" />
        </mxCell>
        <mxCell id="n-iRo7DqzHIQicK5_bs8-50" style="edgeStyle=orthogonalEdgeStyle;rounded=0;orthogonalLoop=1;jettySize=auto;html=1;entryX=0;entryY=0.5;entryDx=0;entryDy=0;" edge="1" parent="1" source="n-iRo7DqzHIQicK5_bs8-30" target="n-iRo7DqzHIQicK5_bs8-32">
          <mxGeometry relative="1" as="geometry" />
        </mxCell>
        <mxCell id="n-iRo7DqzHIQicK5_bs8-51" style="edgeStyle=orthogonalEdgeStyle;rounded=0;orthogonalLoop=1;jettySize=auto;html=1;entryX=0;entryY=0.5;entryDx=0;entryDy=0;" edge="1" parent="1" source="n-iRo7DqzHIQicK5_bs8-30" target="n-iRo7DqzHIQicK5_bs8-33">
          <mxGeometry relative="1" as="geometry" />
        </mxCell>
        <mxCell id="n-iRo7DqzHIQicK5_bs8-30" value="Assets" style="rounded=0;whiteSpace=wrap;html=1;" vertex="1" parent="1">
          <mxGeometry x="780" y="240" width="120" height="60" as="geometry" />
        </mxCell>
        <mxCell id="n-iRo7DqzHIQicK5_bs8-54" style="edgeStyle=orthogonalEdgeStyle;rounded=0;orthogonalLoop=1;jettySize=auto;html=1;entryX=0;entryY=0.5;entryDx=0;entryDy=0;" edge="1" parent="1" source="n-iRo7DqzHIQicK5_bs8-31" target="n-iRo7DqzHIQicK5_bs8-34">
          <mxGeometry relative="1" as="geometry" />
        </mxCell>
        <mxCell id="n-iRo7DqzHIQicK5_bs8-56" style="edgeStyle=orthogonalEdgeStyle;rounded=0;orthogonalLoop=1;jettySize=auto;html=1;entryX=0;entryY=0.5;entryDx=0;entryDy=0;" edge="1" parent="1" source="n-iRo7DqzHIQicK5_bs8-31" target="n-iRo7DqzHIQicK5_bs8-36">
          <mxGeometry relative="1" as="geometry" />
        </mxCell>
        <mxCell id="n-iRo7DqzHIQicK5_bs8-57" style="edgeStyle=orthogonalEdgeStyle;rounded=0;orthogonalLoop=1;jettySize=auto;html=1;entryX=0;entryY=0.5;entryDx=0;entryDy=0;" edge="1" parent="1" source="n-iRo7DqzHIQicK5_bs8-31" target="n-iRo7DqzHIQicK5_bs8-37">
          <mxGeometry relative="1" as="geometry" />
        </mxCell>
        <mxCell id="n-iRo7DqzHIQicK5_bs8-58" style="edgeStyle=orthogonalEdgeStyle;rounded=0;orthogonalLoop=1;jettySize=auto;html=1;entryX=0;entryY=0.5;entryDx=0;entryDy=0;" edge="1" parent="1" source="n-iRo7DqzHIQicK5_bs8-31" target="n-iRo7DqzHIQicK5_bs8-39">
          <mxGeometry relative="1" as="geometry" />
        </mxCell>
        <mxCell id="n-iRo7DqzHIQicK5_bs8-60" style="edgeStyle=orthogonalEdgeStyle;rounded=0;orthogonalLoop=1;jettySize=auto;html=1;entryX=1;entryY=0.5;entryDx=0;entryDy=0;" edge="1" parent="1" source="n-iRo7DqzHIQicK5_bs8-31" target="n-iRo7DqzHIQicK5_bs8-40">
          <mxGeometry relative="1" as="geometry" />
        </mxCell>
        <mxCell id="n-iRo7DqzHIQicK5_bs8-31" value="Components" style="rounded=0;whiteSpace=wrap;html=1;" vertex="1" parent="1">
          <mxGeometry x="780" y="350" width="120" height="60" as="geometry" />
        </mxCell>
        <mxCell id="n-iRo7DqzHIQicK5_bs8-32" value="Color-vaiables" style="rounded=0;whiteSpace=wrap;html=1;" vertex="1" parent="1">
          <mxGeometry x="1030" y="280" width="120" height="60" as="geometry" />
        </mxCell>
        <mxCell id="n-iRo7DqzHIQicK5_bs8-33" value="Global-Styles" style="rounded=0;whiteSpace=wrap;html=1;" vertex="1" parent="1">
          <mxGeometry x="1030" y="370" width="120" height="60" as="geometry" />
        </mxCell>
        <mxCell id="n-iRo7DqzHIQicK5_bs8-34" value="Dashboard" style="rounded=0;whiteSpace=wrap;html=1;" vertex="1" parent="1">
          <mxGeometry x="960" y="480" width="120" height="60" as="geometry" />
        </mxCell>
        <mxCell id="n-iRo7DqzHIQicK5_bs8-35" value="results" style="rounded=0;whiteSpace=wrap;html=1;" vertex="1" parent="1">
          <mxGeometry x="960" y="580" width="120" height="60" as="geometry" />
        </mxCell>
        <mxCell id="n-iRo7DqzHIQicK5_bs8-36" value="createStudy" style="rounded=0;whiteSpace=wrap;html=1;" vertex="1" parent="1">
          <mxGeometry x="960" y="660" width="120" height="60" as="geometry" />
        </mxCell>
        <mxCell id="n-iRo7DqzHIQicK5_bs8-37" value="log in" style="rounded=0;whiteSpace=wrap;html=1;" vertex="1" parent="1">
          <mxGeometry x="960" y="750" width="120" height="60" as="geometry" />
        </mxCell>
        <mxCell id="n-iRo7DqzHIQicK5_bs8-39" value="ParticipantPage" style="rounded=0;whiteSpace=wrap;html=1;" vertex="1" parent="1">
          <mxGeometry x="960" y="840" width="120" height="60" as="geometry" />
        </mxCell>
        <mxCell id="n-iRo7DqzHIQicK5_bs8-61" style="edgeStyle=orthogonalEdgeStyle;rounded=0;orthogonalLoop=1;jettySize=auto;html=1;entryX=1;entryY=0.5;entryDx=0;entryDy=0;" edge="1" parent="1" source="n-iRo7DqzHIQicK5_bs8-40" target="n-iRo7DqzHIQicK5_bs8-45">
          <mxGeometry relative="1" as="geometry" />
        </mxCell>
        <mxCell id="n-iRo7DqzHIQicK5_bs8-62" style="edgeStyle=orthogonalEdgeStyle;rounded=0;orthogonalLoop=1;jettySize=auto;html=1;entryX=1;entryY=0.5;entryDx=0;entryDy=0;" edge="1" parent="1" source="n-iRo7DqzHIQicK5_bs8-40" target="n-iRo7DqzHIQicK5_bs8-46">
          <mxGeometry relative="1" as="geometry" />
        </mxCell>
        <mxCell id="n-iRo7DqzHIQicK5_bs8-40" value="UI-components" style="rounded=0;whiteSpace=wrap;html=1;" vertex="1" parent="1">
          <mxGeometry x="680" y="480" width="120" height="60" as="geometry" />
        </mxCell>
        <mxCell id="n-iRo7DqzHIQicK5_bs8-45" value="Header" style="rounded=0;whiteSpace=wrap;html=1;" vertex="1" parent="1">
          <mxGeometry x="520" y="570" width="120" height="60" as="geometry" />
        </mxCell>
        <mxCell id="n-iRo7DqzHIQicK5_bs8-46" value="Footer" style="rounded=0;whiteSpace=wrap;html=1;" vertex="1" parent="1">
          <mxGeometry x="520" y="660" width="120" height="60" as="geometry" />
        </mxCell>
        <mxCell id="n-iRo7DqzHIQicK5_bs8-55" style="edgeStyle=orthogonalEdgeStyle;rounded=0;orthogonalLoop=1;jettySize=auto;html=1;entryX=-0.001;entryY=0.636;entryDx=0;entryDy=0;entryPerimeter=0;" edge="1" parent="1" source="n-iRo7DqzHIQicK5_bs8-31" target="n-iRo7DqzHIQicK5_bs8-35">
          <mxGeometry relative="1" as="geometry" />
        </mxCell>
      </root>
    </mxGraphModel>
  </diagram>
</mxfile>
